<svg width="230" height="21" viewBox="0 0 230 21" fill="none" xmlns="http://www.w3.org/2000/svg">
<path d="M8.42319 20.3949C7.25331 20.3949 6.55137 19.7433 6.55137 18.613V3.87914H1.72558C0.701933 3.87914 0 3.32063 0 2.42969C0 1.53874 0.687309 0.980238 1.72558 0.980238H15.1354C16.1737 0.980238 16.861 1.53874 16.861 2.42969C16.861 3.32063 16.1591 3.87914 15.1354 3.87914H10.3096V18.613C10.3096 19.7433 9.60771 20.3949 8.42319 20.3949Z" fill="#0297D4"/>
<path d="M22.4911 20.3151C20.8971 20.3151 19.9612 19.7167 19.9612 18.6662C19.9612 17.8816 20.5754 17.3763 21.716 17.3763H21.7745C23.3539 17.3763 24.2021 16.7912 24.904 15.7673L18.6012 3.05468C18.4696 2.80202 18.4111 2.49618 18.4111 2.23022C18.4111 1.35257 19.1862 0.714284 20.2537 0.714284C21.1311 0.714284 21.6137 1.04673 22.0231 1.93767L26.8197 12.2833H27.0098L31.6162 1.92438C31.9964 1.06002 32.4644 0.714284 33.3857 0.714284C34.4825 0.714284 35.1698 1.31268 35.1698 2.19033C35.1698 2.45628 35.1113 2.76213 34.9943 3.02809L29.3057 14.7168C27.3169 18.7992 25.5328 20.3151 22.4911 20.3151Z" fill="#0297D4"/>
<path d="M44.8945 20.3949C43.7246 20.3949 43.0226 19.7433 43.0226 18.613V3.87914H38.1968C37.1732 3.87914 36.4713 3.32063 36.4713 2.42969C36.4713 1.53874 37.1586 0.980238 38.1968 0.980238H51.6067C52.645 0.980238 53.3323 1.53874 53.3323 2.42969C53.3323 3.32063 52.6303 3.87914 51.6067 3.87914H46.7809V18.613C46.7809 19.7433 46.079 20.3949 44.8945 20.3949Z" fill="#0297D4"/>
<path d="M70.2225 20.5545C65.8939 20.5545 62.9838 18.7593 61.7408 16.1396C61.5507 15.754 61.463 15.395 61.463 15.0625C61.463 14.145 62.1649 13.4801 63.1886 13.4801C63.9636 13.4801 64.4462 13.746 64.841 14.4375C65.9671 16.5652 67.6634 17.5758 70.2079 17.5758C73.4982 17.5758 75.8234 15.3019 76.0427 11.7913H68.7602C67.795 11.7913 67.1077 11.2461 67.1077 10.4083C67.1077 9.57056 67.795 9.02535 68.7602 9.02535H76.0135C75.6918 5.71422 73.3812 3.57329 70.2225 3.57329C67.8096 3.57329 66.0841 4.62381 65.0312 6.63176C64.5924 7.44292 64.0952 7.69558 63.3202 7.69558C62.2819 7.69558 61.58 7.08389 61.58 6.13975C61.58 5.8339 61.6385 5.55465 61.7701 5.23551C62.6914 2.68234 65.9524 0.594604 70.2225 0.594604C76.189 0.594604 79.9619 4.42434 79.9619 10.5679C79.9619 16.7513 76.2328 20.5545 70.2225 20.5545Z" fill="#0297D4"/>
<path d="M85.1386 20.1688C83.9687 20.1688 83.2522 19.5039 83.2522 18.3869V2.76213C83.2522 1.64512 83.9687 0.980238 85.1386 0.980238H92.0117C95.8431 0.980238 98.3145 2.85522 98.3145 5.76741C98.3145 7.82856 96.6328 9.62375 94.4685 9.94289V10.0493C97.3347 10.3019 99.3381 12.1769 99.3381 14.7168C99.3381 18.0944 96.6035 20.1688 92.0994 20.1688H85.1386ZM87.025 9.06525H90.4762C93.1085 9.06525 94.5854 8.05462 94.5854 6.27273C94.5854 4.59722 93.3132 3.65308 91.0612 3.65308H87.025V9.06525ZM87.025 17.496H91.2366C94.0151 17.496 95.4921 16.4455 95.4921 14.4774C95.4921 12.5226 93.9713 11.4987 91.0758 11.4987H87.025V17.496Z" fill="#0297D4"/>
<path d="M103.009 20.3949C101.853 20.3949 101.108 19.7832 101.108 18.8125C101.108 18.5465 101.181 18.1742 101.356 17.7619L107.483 2.61586C107.995 1.33928 108.843 0.754177 110.218 0.754177C111.607 0.754177 112.455 1.31268 112.982 2.60256L119.124 17.7619C119.299 18.2008 119.372 18.5066 119.372 18.8125C119.372 19.7433 118.583 20.3949 117.486 20.3949C116.462 20.3949 115.892 19.9694 115.556 18.9454L114.166 15.2753H106.284L104.895 18.9188C104.544 19.9561 103.988 20.3949 103.009 20.3949ZM107.176 12.5625H113.245L110.247 4.37115H110.145L107.176 12.5625Z" fill="#0297D4"/>
<path d="M124.301 20.3949C123.131 20.3949 122.414 19.73 122.414 18.613V2.53607C122.414 1.41906 123.131 0.754177 124.301 0.754177C125.47 0.754177 126.187 1.41906 126.187 2.53607V9.37109H126.304L134.786 1.48555C135.4 0.927047 135.736 0.754177 136.307 0.754177C137.242 0.754177 137.988 1.36587 137.988 2.15044C137.988 2.57596 137.827 2.9217 137.433 3.28074L129.872 10.1025L138.032 17.5758C138.442 17.9747 138.602 18.3072 138.602 18.7726C138.602 19.7034 137.842 20.3949 136.818 20.3949C136.146 20.3949 135.751 20.1821 135.049 19.5305L126.304 11.4189H126.187V18.613C126.187 19.73 125.47 20.3949 124.301 20.3949Z" fill="#0297D4"/>
<path d="M144.51 20.3151C142.916 20.3151 141.981 19.7167 141.981 18.6662C141.981 17.8816 142.595 17.3763 143.735 17.3763H143.794C145.373 17.3763 146.221 16.7912 146.923 15.7673L140.621 3.05468C140.489 2.80202 140.43 2.49618 140.43 2.23022C140.43 1.35257 141.205 0.714284 142.273 0.714284C143.15 0.714284 143.633 1.04673 144.042 1.93767L148.839 12.2833H149.029L153.636 1.92438C154.016 1.06002 154.484 0.714284 155.405 0.714284C156.502 0.714284 157.189 1.31268 157.189 2.19033C157.189 2.45628 157.131 2.76213 157.014 3.02809L151.325 14.7168C149.336 18.7992 147.552 20.3151 144.51 20.3151Z" fill="#0297D4"/>
<path d="M158.461 20.3949C157.306 20.3949 156.56 19.7832 156.56 18.8125C156.56 18.5465 156.633 18.1742 156.809 17.7619L162.936 2.61586C163.448 1.33928 164.296 0.754177 165.671 0.754177C167.06 0.754177 167.908 1.31268 168.435 2.60256L174.577 17.7619C174.752 18.2008 174.825 18.5066 174.825 18.8125C174.825 19.7433 174.035 20.3949 172.939 20.3949C171.915 20.3949 171.345 19.9694 171.008 18.9454L169.619 15.2753H161.737L160.348 18.9188C159.997 19.9561 159.441 20.3949 158.461 20.3949ZM162.629 12.5625H168.698L165.7 4.37115H165.598L162.629 12.5625Z" fill="#0297D4"/>
<path d="M182.444 20.3949C181.274 20.3949 180.572 19.7433 180.572 18.613V3.87914H175.746C174.723 3.87914 174.021 3.32063 174.021 2.42969C174.021 1.53874 174.708 0.980238 175.746 0.980238H189.156C190.195 0.980238 190.882 1.53874 190.882 2.42969C190.882 3.32063 190.18 3.87914 189.156 3.87914H184.33V18.613C184.33 19.7433 183.629 20.3949 182.444 20.3949Z" fill="#0297D4"/>
<path d="M201.382 20.488C195.225 20.488 191.364 16.6848 191.364 10.5812C191.364 4.47754 195.225 0.661093 201.382 0.661093C207.524 0.661093 211.384 4.47754 211.384 10.5812C211.384 16.6848 207.524 20.488 201.382 20.488ZM201.382 17.5625C205.14 17.5625 207.538 14.8497 207.538 10.5812C207.538 6.29932 205.14 3.58659 201.382 3.58659C197.609 3.58659 195.225 6.29932 195.225 10.5812C195.225 14.8497 197.609 17.5625 201.382 17.5625Z" fill="#0297D4"/>
<path d="M216.576 20.3949C215.406 20.3949 214.689 19.7433 214.689 18.613V2.76213C214.689 1.64512 215.406 0.980238 216.576 0.980238H222.893C227.09 0.980238 230 3.57329 230 7.40303C230 11.2328 227.002 13.8258 222.732 13.8258H218.462V18.613C218.462 19.7433 217.76 20.3949 216.576 20.3949ZM218.462 11.0599H221.884C224.589 11.0599 226.169 9.73013 226.169 7.40303C226.169 5.10253 224.604 3.78605 221.899 3.78605H218.462V11.0599Z" fill="#0297D4"/>
</svg>
